<svg width="137" height="32" viewBox="0 0 137 32" fill="none" xmlns="http://www.w3.org/2000/svg">
<path d="M38.6 24.6265V7.57686H50.961V10.9157H42.3414V14.3493H50.511V17.5225H42.3414V24.6265H38.6ZM52.5879 24.6265V7.57686H60.4733C64.712 7.57686 66.5827 9.70806 66.5827 12.6444C66.5827 14.3967 65.6119 15.8412 63.9779 16.8121C65.4224 17.4988 66.0144 18.6117 66.2275 20.0799L66.9143 24.6265H63.1018L62.5335 20.6956C62.273 18.9669 61.4915 18.1618 59.8339 18.1618H56.3293V24.6265H52.5879ZM56.3293 15.2729H59.8576C61.7994 15.2729 62.7466 14.5151 62.7466 12.9285C62.7466 11.3657 61.7994 10.6079 59.8576 10.6079H56.3293V15.2729ZM68.6801 24.6265V7.57686H72.4215V24.6265H68.6801ZM75.0598 24.6265V7.57686H81.7139C87.7049 7.57686 90.4044 11.2709 90.4044 16.1017C90.4044 20.9324 87.7049 24.6265 81.7139 24.6265H75.0598ZM78.8012 21.4297H81.7139C85.1475 21.4297 86.5209 19.0853 86.5209 16.1017C86.5209 13.118 85.1475 10.7737 81.7139 10.7737H78.8012V21.4297ZM99.6485 24.9106C94.6284 24.9106 91.621 20.9324 91.621 16.1017C91.621 11.2709 94.6284 7.2927 100.217 7.2927C104.763 7.2927 107.652 9.8975 108.244 13.4495H104.456C103.958 11.7682 102.49 10.5605 100.217 10.5605C96.878 10.5605 95.5045 13.118 95.5045 16.1017C95.5045 19.0853 96.878 21.6428 100.217 21.6428C102.585 21.6428 104.006 20.3641 104.621 18.2329H99.5064V15.2492H108.481V24.6265H105.758V21.6901C104.645 23.7029 102.727 24.9106 99.6485 24.9106ZM110.875 24.6265V7.57686H123.709V10.9157H114.616V14.3493H123.023V17.5225H114.616V21.2876H123.662V24.6265H110.875Z" fill="white"/>
<rect x="3.51953" y="15.8145" width="19.4989" height="5.18989" rx="2.59494" transform="rotate(-45 3.51953 15.8145)" fill="#FE6518"/>
<rect x="14.7207" y="23.4844" width="5.18989" height="5.18989" rx="2.59494" fill="#FE6518"/>
<path d="M20.6413 8.98293C21.6609 7.96337 23.3139 7.96337 24.3335 8.98293C25.353 10.0025 25.353 11.6554 24.3335 12.675L21.0516 15.9567C21.0518 15.9402 21.0524 15.9237 21.0524 15.9072C21.0524 13.9007 19.4258 12.2742 17.4194 12.2742C17.3959 12.2742 17.3725 12.2745 17.3491 12.275L20.6413 8.98293Z" fill="#FFD0A8" fill-opacity="0.4"/>
<path d="M25.7294 14.1851C26.7489 13.1655 28.402 13.1655 29.4216 14.1851C30.4411 15.2046 30.4411 16.8577 29.4216 17.8773L20.9377 26.3609C20.9448 26.2679 20.9484 26.1739 20.9484 26.0791C20.9484 24.1228 19.402 22.5277 17.4648 22.4495L25.7294 14.1851Z" fill="#FFD0A8" fill-opacity="0.4"/>
<rect x="8.66504" y="20.9595" width="12.2242" height="5.18989" rx="2.59494" transform="rotate(-45 8.66504 20.9595)" fill="#FE6518"/>
</svg>
