<svg width="132" height="32" viewBox="0 0 132 32" fill="none" xmlns="http://www.w3.org/2000/svg">
<path d="M38.6001 24.6262V7.57662H50.9611V10.9155H42.3416V14.3491H50.5112V17.5222H42.3416V24.6262H38.6001ZM52.588 24.6262V7.57662H60.4734C64.7121 7.57662 66.5829 9.70782 66.5829 12.6441C66.5829 14.3965 65.612 15.8409 63.9781 16.8118C65.4225 17.4985 66.0145 18.6115 66.2277 20.0797L66.9144 24.6262H63.1019L62.5336 20.6953C62.2731 18.9667 61.4917 18.1616 59.8341 18.1616H56.3294V24.6262H52.588ZM56.3294 15.2726H59.8577C61.7995 15.2726 62.7467 14.5149 62.7467 12.9283C62.7467 11.3654 61.7995 10.6077 59.8577 10.6077H56.3294V15.2726ZM68.6802 24.6262V7.57662H72.4216V24.6262H68.6802ZM75.0599 24.6262V7.57662H81.714C87.705 7.57662 90.4046 11.2707 90.4046 16.1014C90.4046 20.9321 87.705 24.6262 81.714 24.6262H75.0599ZM78.8014 21.4294H81.714C85.1476 21.4294 86.521 19.0851 86.521 16.1014C86.521 13.1177 85.1476 10.7734 81.714 10.7734H78.8014V21.4294ZM99.6486 24.9104C94.6285 24.9104 91.6211 20.9321 91.6211 16.1014C91.6211 11.2707 94.6285 7.29246 100.217 7.29246C104.764 7.29246 107.652 9.89726 108.244 13.4493H104.456C103.958 11.768 102.49 10.5603 100.217 10.5603C96.8781 10.5603 95.5046 13.1177 95.5046 16.1014C95.5046 19.0851 96.8781 21.6425 100.217 21.6425C102.585 21.6425 104.006 20.3638 104.621 18.2326H99.5066V15.2489H108.481V24.6262H105.758V21.6899C104.645 23.7027 102.727 24.9104 99.6486 24.9104ZM110.875 24.6262V7.57662H123.71V10.9155H114.616V14.3491H123.023V17.5222H114.616V21.2873H123.662V24.6262H110.875Z" fill="white"/>
<g clip-path="url(#clip0_19889_15818)">
<g opacity="0.5">
<g clip-path="url(#clip1_19889_15818)">
<path d="M0 21.9167H32" stroke="#007AFF" stroke-width="0.166667"/>
<path d="M0 16H32" stroke="#007AFF" stroke-width="0.166667"/>
<path d="M0 10.0833H32" stroke="#007AFF" stroke-width="0.166667"/>
<path d="M21.9166 32V0" stroke="#007AFF" stroke-width="0.166667"/>
<path d="M16 32V0" stroke="#007AFF" stroke-width="0.166667"/>
<path d="M10.0834 32V0" stroke="#007AFF" stroke-width="0.166667"/>
<path d="M32 32L0 0" stroke="#007AFF" stroke-width="0.166667"/>
<path d="M0 32L32 0" stroke="#007AFF" stroke-width="0.166667"/>
<rect x="2.08337" y="2.08325" width="27.8333" height="27.8333" stroke="#007AFF" stroke-width="0.166667"/>
<circle cx="16" cy="15.9999" r="5.91667" stroke="#007AFF" stroke-width="0.166667"/>
<circle cx="16" cy="15.9999" r="8.41667" stroke="#007AFF" stroke-width="0.166667"/>
<circle cx="16" cy="15.9999" r="13.9167" stroke="#007AFF" stroke-width="0.166667"/>
</g>
<rect x="0.0833333" y="0.0833333" width="31.8333" height="31.8333" rx="7.08333" stroke="#FF3B30" stroke-width="0.166667"/>
</g>
<rect width="32" height="32" fill="url(#paint0_linear_19889_15818)"/>
<rect width="16.8237" height="4.47786" rx="2.23893" transform="matrix(0.706857 -0.707356 0.706857 0.707356 4 15.8997)" fill="white"/>
<rect x="13.5693" y="22.5198" width="4.47627" height="4.47944" rx="2.23814" fill="white"/>
<path d="M18.7672 10.0033C19.6466 9.12326 21.0724 9.12326 21.9518 10.0033C22.8311 10.8832 22.8311 12.3099 21.9518 13.1899L19.1211 16.0224C19.1213 16.0081 19.1218 15.9939 19.1218 15.9796C19.1218 14.2479 17.7189 12.844 15.9884 12.844C15.9681 12.844 15.9479 12.8443 15.9277 12.8446L18.7672 10.0033Z" fill="#FFA165"/>
<path d="M23.156 14.4932C24.0354 13.6133 25.4611 13.6133 26.3405 14.4932C27.2198 15.3732 27.2199 16.8 26.3405 17.68L19.0231 25.0023C19.0293 24.922 19.0324 24.8409 19.0324 24.7591C19.0324 23.0705 17.6986 21.6939 16.0278 21.6263L23.156 14.4932Z" fill="#FFA165"/>
<rect width="10.5471" height="4.47786" rx="2.23893" transform="matrix(0.706857 -0.707356 0.706857 0.707356 8.43738 20.3403)" fill="white"/>
</g>
<defs>
<linearGradient id="paint0_linear_19889_15818" x1="16" y1="0" x2="16" y2="32" gradientUnits="userSpaceOnUse">
<stop stop-color="#FF6E00"/>
<stop offset="1" stop-color="#FF5900"/>
</linearGradient>
<clipPath id="clip0_19889_15818">
<rect width="32" height="32" rx="4.26667" fill="white"/>
</clipPath>
<clipPath id="clip1_19889_15818">
<rect width="32" height="32" rx="7.16667" fill="white"/>
</clipPath>
</defs>
</svg>
