<svg width="138" height="32" viewBox="0 0 138 32" fill="none" xmlns="http://www.w3.org/2000/svg">
<path d="M41.3734 24.6262V7.57662H53.7344V10.9155H45.1149V14.3491H53.2845V17.5222H45.1149V24.6262H41.3734ZM55.3613 24.6262V7.57662H63.2467C67.4855 7.57662 69.3562 9.70782 69.3562 12.6441C69.3562 14.3965 68.3853 15.8409 66.7514 16.8118C68.1959 17.4985 68.7879 18.6115 69.001 20.0797L69.6877 24.6262H65.8752L65.3069 20.6953C65.0464 18.9667 64.265 18.1616 62.6074 18.1616H59.1027V24.6262H55.3613ZM59.1027 15.2726H62.6311C64.5728 15.2726 65.52 14.5149 65.52 12.9283C65.52 11.3654 64.5728 10.6077 62.6311 10.6077H59.1027V15.2726ZM71.4535 24.6262V7.57662H75.195V24.6262H71.4535ZM77.8332 24.6262V7.57662H84.4873C90.4784 7.57662 93.1779 11.2707 93.1779 16.1014C93.1779 20.9321 90.4784 24.6262 84.4873 24.6262H77.8332ZM81.5747 21.4294H84.4873C87.9209 21.4294 89.2944 19.0851 89.2944 16.1014C89.2944 13.1177 87.9209 10.7734 84.4873 10.7734H81.5747V21.4294ZM102.422 24.9104C97.4018 24.9104 94.3944 20.9321 94.3944 16.1014C94.3944 11.2707 97.4018 7.29246 102.99 7.29246C107.537 7.29246 110.426 9.89726 111.018 13.4493H107.229C106.732 11.768 105.264 10.5603 102.99 10.5603C99.6514 10.5603 98.278 13.1177 98.278 16.1014C98.278 19.0851 99.6514 21.6425 102.99 21.6425C105.358 21.6425 106.779 20.3638 107.395 18.2326H102.28V15.2489H111.255V24.6262H108.531V21.6899C107.418 23.7027 105.5 24.9104 102.422 24.9104ZM113.648 24.6262V7.57662H126.483V10.9155H117.39V14.3491H125.796V17.5222H117.39V21.2873H126.436V24.6262H113.648Z" fill="white"/>
<g clip-path="url(#clip0_19889_15818)">
<g opacity="0.5">
<g clip-path="url(#clip1_19889_15818)">
<path d="M4 21.177H32" stroke="#007AFF" stroke-width="0.145833"/>
<path d="M4 16H32" stroke="#007AFF" stroke-width="0.145833"/>
<path d="M4 10.823H32" stroke="#007AFF" stroke-width="0.145833"/>
<path d="M23.1771 30V2" stroke="#007AFF" stroke-width="0.145833"/>
<path d="M18 30V2" stroke="#007AFF" stroke-width="0.145833"/>
<path d="M12.8229 30V2" stroke="#007AFF" stroke-width="0.145833"/>
<path d="M32 30L4 2" stroke="#007AFF" stroke-width="0.145833"/>
<path d="M4 30L32 2" stroke="#007AFF" stroke-width="0.145833"/>
<rect x="5.82288" y="3.823" width="24.3542" height="24.3542" stroke="#007AFF" stroke-width="0.145833"/>
<circle cx="18" cy="16.0001" r="5.17708" stroke="#007AFF" stroke-width="0.145833"/>
<circle cx="18" cy="16.0001" r="7.36458" stroke="#007AFF" stroke-width="0.145833"/>
<circle cx="18" cy="16.0001" r="12.1771" stroke="#007AFF" stroke-width="0.145833"/>
</g>
<rect x="4.07292" y="2.07292" width="27.8542" height="27.8542" rx="6.19792" stroke="#FF3B30" stroke-width="0.145833"/>
</g>
<rect width="28" height="28" transform="translate(4 2)" fill="url(#paint0_linear_19889_15818)"/>
<rect width="14.7208" height="3.91812" rx="1.95906" transform="matrix(0.706857 -0.707356 0.706857 0.707356 7.5 15.9124)" fill="white"/>
<rect x="15.8732" y="21.7048" width="3.91674" height="3.91951" rx="1.95837" fill="white"/>
<path d="M20.4213 10.7528C21.1908 9.98279 22.4383 9.98279 23.2078 10.7528C23.9772 11.5228 23.9772 12.7711 23.2078 13.5411L20.731 16.0195C20.7312 16.0071 20.7316 15.9946 20.7316 15.9821C20.7316 14.4668 19.504 13.2384 17.9898 13.2384C17.9721 13.2384 17.9544 13.2387 17.9368 13.239L20.4213 10.7528Z" fill="#FFA165"/>
<path d="M24.2615 14.6817C25.031 13.9117 26.2785 13.9117 27.048 14.6817C27.8174 15.4517 27.8174 16.7002 27.048 17.4702L20.6453 23.8771C20.6507 23.8069 20.6534 23.736 20.6534 23.6644C20.6534 22.1869 19.4864 20.9823 18.0244 20.9232L24.2615 14.6817Z" fill="#FFA165"/>
<rect width="9.22873" height="3.91812" rx="1.95906" transform="matrix(0.706857 -0.707356 0.706857 0.707356 11.3827 19.7979)" fill="white"/>
</g>
<defs>
<linearGradient id="paint0_linear_19889_15818" x1="14" y1="0" x2="14" y2="28" gradientUnits="userSpaceOnUse">
<stop stop-color="#FF6E00"/>
<stop offset="1" stop-color="#FF5900"/>
</linearGradient>
<clipPath id="clip0_19889_15818">
<rect x="4" y="2" width="28" height="28" rx="3.73333" fill="white"/>
</clipPath>
<clipPath id="clip1_19889_15818">
<rect x="4" y="2" width="28" height="28" rx="6.27083" fill="white"/>
</clipPath>
</defs>
</svg>
