<svg width="32" height="32" viewBox="0 0 32 32" fill="none" xmlns="http://www.w3.org/2000/svg">
<path fill-rule="evenodd" clip-rule="evenodd" d="M15.9993 2.66699C12.378 2.66699 11.9247 2.6821 10.5025 2.74699C9.0829 2.81188 8.11313 3.03766 7.26513 3.36744C6.37624 3.70166 5.57002 4.2261 4.90335 4.90521C4.22532 5.57111 3.70056 6.37677 3.36557 7.2661C3.03757 8.1141 2.8109 9.08477 2.74602 10.5043C2.68202 11.9257 2.66602 12.3781 2.66602 16.0003C2.66602 19.6225 2.68113 20.075 2.74602 21.4972C2.8109 22.9168 3.03668 23.8865 3.36646 24.7345C3.70068 25.6234 4.22513 26.4297 4.90424 27.0963C5.57015 27.7743 6.3758 28.2991 7.26513 28.6341C8.11313 28.963 9.0829 29.1888 10.5025 29.2537C11.9247 29.3185 12.378 29.3337 15.9993 29.3337C19.6207 29.3337 20.074 29.3185 21.4962 29.2537C22.9158 29.1888 23.8856 28.963 24.7336 28.6332C25.6225 28.299 26.4287 27.7745 27.0953 27.0954C27.7734 26.4295 28.2981 25.6239 28.6331 24.7345C28.962 23.8865 29.1878 22.9168 29.2527 21.4972C29.3176 20.075 29.3327 19.6217 29.3327 16.0003C29.3327 12.379 29.3176 11.9257 29.2527 10.5034C29.1878 9.08388 28.962 8.1141 28.6322 7.2661C28.2975 6.37638 27.7727 5.57039 27.0945 4.90433C26.4286 4.2263 25.6229 3.70153 24.7336 3.36655C23.8856 3.03855 22.9149 2.81188 21.4953 2.74699C20.074 2.68299 19.6216 2.66699 15.9993 2.66699ZM15.9993 5.06966C19.5593 5.06966 19.9816 5.08299 21.3878 5.14699C22.6873 5.20655 23.3931 5.42255 23.8633 5.60655C24.4856 5.84744 24.93 6.13721 25.3967 6.60299C25.8633 7.06966 26.1522 7.5141 26.3931 8.13633C26.5762 8.60655 26.7931 9.31233 26.8527 10.6119C26.9167 12.0181 26.93 12.4403 26.93 16.0003C26.93 19.5603 26.9167 19.9825 26.8527 21.3888C26.7931 22.6883 26.5771 23.3941 26.3931 23.8643C26.1797 24.4435 25.8392 24.9674 25.3967 25.3977C24.9665 25.8403 24.4426 26.1808 23.8633 26.3941C23.3931 26.5772 22.6873 26.7941 21.3878 26.8537C19.9816 26.9177 19.5602 26.931 15.9993 26.931C12.4385 26.931 12.0171 26.9177 10.6109 26.8537C9.31135 26.7941 8.60557 26.5781 8.13535 26.3941C7.5562 26.1807 7.03224 25.8402 6.60202 25.3977C6.15951 24.9674 5.81902 24.4434 5.60557 23.8643C5.42246 23.3941 5.20557 22.6883 5.14602 21.3888C5.08202 19.9825 5.06868 19.5603 5.06868 16.0003C5.06868 12.4403 5.08202 12.0181 5.14602 10.6119C5.20557 9.31233 5.42157 8.60655 5.60557 8.13633C5.84646 7.5141 6.13624 7.06966 6.60202 6.60299C7.03219 6.16037 7.55616 5.81986 8.13535 5.60655C8.60557 5.42344 9.31135 5.20655 10.6109 5.14699C12.0171 5.08299 12.4393 5.06966 15.9993 5.06966Z" fill="#7D7D7D"/>
<path fill-rule="evenodd" clip-rule="evenodd" d="M15.9994 20.4492C15.4151 20.4492 14.8366 20.3341 14.2969 20.1106C13.7571 19.887 13.2666 19.5593 12.8535 19.1462C12.4404 18.733 12.1127 18.2426 11.8891 17.7028C11.6656 17.1631 11.5505 16.5846 11.5505 16.0003C11.5505 15.4161 11.6656 14.8376 11.8891 14.2978C12.1127 13.758 12.4404 13.2676 12.8535 12.8545C13.2666 12.4414 13.7571 12.1137 14.2969 11.8901C14.8366 11.6665 15.4151 11.5514 15.9994 11.5514C17.1793 11.5514 18.3109 12.0202 19.1452 12.8545C19.9795 13.6888 20.4483 14.8204 20.4483 16.0003C20.4483 17.1802 19.9795 18.3118 19.1452 19.1462C18.3109 19.9805 17.1793 20.4492 15.9994 20.4492ZM15.9994 9.14699C14.1818 9.14699 12.4386 9.86904 11.1533 11.1543C9.86808 12.4395 9.14604 14.1827 9.14604 16.0003C9.14604 17.8179 9.86808 19.5611 11.1533 20.8464C12.4386 22.1316 14.1818 22.8537 15.9994 22.8537C17.817 22.8537 19.5602 22.1316 20.8454 20.8464C22.1307 19.5611 22.8527 17.8179 22.8527 16.0003C22.8527 14.1827 22.1307 12.4395 20.8454 11.1543C19.5602 9.86904 17.817 9.14699 15.9994 9.14699ZM24.8465 9.02255C24.8465 9.4522 24.6758 9.86425 24.372 10.1681C24.0682 10.4719 23.6561 10.6425 23.2265 10.6425C22.7968 10.6425 22.3848 10.4719 22.081 10.1681C21.7772 9.86425 21.6065 9.4522 21.6065 9.02255C21.6065 8.5929 21.7772 8.18084 22.081 7.87703C22.3848 7.57323 22.7968 7.40255 23.2265 7.40255C23.6561 7.40255 24.0682 7.57323 24.372 7.87703C24.6758 8.18084 24.8465 8.5929 24.8465 9.02255Z" fill="#7D7D7D"/>
</svg>
