<svg width="32" height="32" viewBox="0 0 32 32" fill="none" xmlns="http://www.w3.org/2000/svg">
<path d="M22.4291 6.8462C21.4516 5.72558 20.8639 4.26439 20.8639 2.66699H19.6391C19.9545 4.41299 20.9939 5.91134 22.4291 6.8462Z" fill="#7D7D7D"/>
<path d="M11.0957 15.8734C8.97384 15.8734 7.24788 17.6008 7.24788 19.7245C7.24788 21.2043 8.08921 22.492 9.31408 23.136C8.85631 22.5044 8.58411 21.7305 8.58411 20.8885C8.58411 18.7648 10.3101 17.0374 12.432 17.0374C12.8279 17.0374 13.2114 17.1054 13.5702 17.2169V12.5362C13.199 12.4866 12.8217 12.4556 12.432 12.4556C12.3639 12.4556 12.302 12.4618 12.234 12.4618V16.0529C11.869 15.9414 11.4916 15.8734 11.0957 15.8734Z" fill="#7D7D7D"/>
<path d="M25.8994 8.90177V12.4618C23.5238 12.4618 21.3215 11.7003 19.5275 10.4125V19.7307C19.5275 24.3804 15.7477 28.1697 11.0956 28.1697C9.30161 28.1697 7.63133 27.6 6.26416 26.6404C7.80454 28.2934 10.0007 29.3337 12.4319 29.3337C17.0777 29.3337 20.8637 25.5506 20.8637 20.8947V11.5765C22.6577 12.8643 24.86 13.6258 27.2356 13.6258V9.04423C26.7716 9.04423 26.3262 8.99464 25.8994 8.90177Z" fill="#7D7D7D"/>
<path d="M19.5275 19.7307V10.4125C21.3215 11.7003 23.5238 12.4618 25.8994 12.4618V8.90177C24.526 8.61084 23.3199 7.86783 22.4291 6.8462C20.9938 5.91134 19.9606 4.41299 19.6326 2.66699H16.2797L16.2735 21.037C16.1993 23.0926 14.5042 24.7458 12.4319 24.7458C11.1451 24.7458 10.013 24.108 9.30781 23.1422C8.08292 22.492 7.2416 21.2105 7.2416 19.7307C7.2416 17.607 8.96756 15.8796 11.0894 15.8796C11.4854 15.8796 11.8689 15.9476 12.2277 16.0591V12.468C7.67464 12.5671 4 16.3067 4 20.8947C4 23.1112 4.85989 25.1297 6.26416 26.6404C7.63133 27.6 9.30161 28.1697 11.0956 28.1697C15.7415 28.1697 19.5275 24.3804 19.5275 19.7307Z" fill="#7D7D7D"/>
</svg>
