<svg width="400" height="60" viewBox="0 0 400 60" fill="none" xmlns="http://www.w3.org/2000/svg">
<g clip-path="url(#clip0_700_6384)">
<g filter="url(#filter0_f_700_6384)">
<ellipse cx="31.7119" cy="-19.4048" rx="65.5479" ry="23.855" fill="#EC5A2F" fill-opacity="0.53"/>
</g>
<g style="mix-blend-mode:multiply" opacity="0.4" filter="url(#filter1_f_700_6384)">
<path d="M302.575 -35.1457C288.745 -62.3513 207.655 -94.0983 109.23 -105.363C10.8052 -116.628 -57.773 -103.706 -43.9435 -76.5001C-30.114 -49.2945 10.4902 -6.63618 91.4467 13.233C135.119 -9.98556 316.404 -7.94006 302.575 -35.1457Z" fill="#E9AC13"/>
</g>
<path d="M44.1758 35.7982V24.5584H52.3246V26.7595H46.6423V29.0231H52.028V31.1149H46.6423V35.7982H44.1758Z" fill="#252525"/>
<path d="M53.3971 35.7982V24.5584H58.5955C61.3898 24.5584 62.623 25.9634 62.623 27.8991C62.623 29.0543 61.983 30.0066 60.9059 30.6466C61.8581 31.0993 62.2484 31.833 62.3889 32.8009L62.8416 35.7982H60.3283L59.9536 33.2068C59.7819 32.0672 59.2667 31.5364 58.174 31.5364H55.8636V35.7982H53.3971ZM55.8636 29.6319H58.1896C59.4697 29.6319 60.0941 29.1324 60.0941 28.0865C60.0941 27.0561 59.4697 26.5566 58.1896 26.5566H55.8636V29.6319Z" fill="#252525"/>
<path d="M64.0057 35.7982V24.5584H66.4722V35.7982H64.0057Z" fill="#252525"/>
<path d="M68.2114 35.7982V24.5584H72.5981C76.5476 24.5584 78.3272 26.9937 78.3272 30.1783C78.3272 33.3629 76.5476 35.7982 72.5981 35.7982H68.2114ZM70.6779 33.6907H72.5981C74.8616 33.6907 75.767 32.1452 75.767 30.1783C75.767 28.2113 74.8616 26.6659 72.5981 26.6659H70.6779V33.6907Z" fill="#252525"/>
<path d="M84.4212 35.9855C81.1118 35.9855 79.1292 33.3629 79.1292 30.1783C79.1292 26.9937 81.1118 24.3711 84.7959 24.3711C87.7932 24.3711 89.6977 26.0883 90.0879 28.4299H87.5902C87.2624 27.3215 86.2945 26.5254 84.7959 26.5254C82.5948 26.5254 81.6894 28.2113 81.6894 30.1783C81.6894 32.1452 82.5948 33.8312 84.7959 33.8312C86.357 33.8312 87.2936 32.9882 87.6995 31.5833H84.3276V29.6163H90.244V35.7982H88.4488V33.8624C87.7151 35.1893 86.4506 35.9855 84.4212 35.9855Z" fill="#252525"/>
<path d="M91.8221 35.7982V24.5584H100.283V26.7595H94.2886V29.0231H99.8304V31.1149H94.2886V33.597H100.252V35.7982H91.8221Z" fill="#252525"/>
<rect x="20.918" y="29.9453" width="12.8544" height="3.42137" rx="1.71068" transform="rotate(-45 20.918 29.9453)" fill="#E96513"/>
<rect x="28.3047" y="35.001" width="3.42137" height="3.42137" rx="1.71068" fill="#E96513"/>
<path d="M32.2074 25.4416C32.8795 24.7695 33.9693 24.7695 34.6415 25.4416C35.3136 26.1137 35.3136 27.2034 34.6415 27.8756L32.478 30.039C32.4781 30.0281 32.4784 30.0172 32.4784 30.0062C32.4784 28.6835 31.4061 27.6113 30.0834 27.6113C30.068 27.6113 30.0525 27.6115 30.0371 27.6118L32.2074 25.4416Z" fill="#E96513" fill-opacity="0.15"/>
<path d="M35.5595 28.8703C36.2317 28.1982 37.3215 28.1982 37.9936 28.8703C38.6657 29.5424 38.6657 30.6321 37.9936 31.3043L32.4007 36.8971C32.4054 36.8358 32.4079 36.7739 32.4079 36.7114C32.4079 35.4217 31.3884 34.3701 30.1113 34.3185L35.5595 28.8703Z" fill="#E96513" fill-opacity="0.15"/>
<rect x="24.3105" y="33.3369" width="8.05868" height="3.42137" rx="1.71068" transform="rotate(-45 24.3105 33.3369)" fill="#E96513"/>
</g>
<defs>
<filter id="filter0_f_700_6384" x="-66.5359" y="-75.9598" width="196.496" height="113.11" filterUnits="userSpaceOnUse" color-interpolation-filters="sRGB">
<feFlood flood-opacity="0" result="BackgroundImageFix"/>
<feBlend mode="normal" in="SourceGraphic" in2="BackgroundImageFix" result="shape"/>
<feGaussianBlur stdDeviation="16.35" result="effect1_foregroundBlur_700_6384"/>
</filter>
<filter id="filter1_f_700_6384" x="-82.4168" y="-146.133" width="422.443" height="196.066" filterUnits="userSpaceOnUse" color-interpolation-filters="sRGB">
<feFlood flood-opacity="0" result="BackgroundImageFix"/>
<feBlend mode="normal" in="SourceGraphic" in2="BackgroundImageFix" result="shape"/>
<feGaussianBlur stdDeviation="18.35" result="effect1_foregroundBlur_700_6384"/>
</filter>
<clipPath id="clip0_700_6384">
<rect width="400" height="60" fill="white" transform="matrix(1 0 0 -1 0 60)"/>
</clipPath>
</defs>
</svg>
